<svg width="1440" height="790" viewBox="0 0 1440 790" fill="none" xmlns="http://www.w3.org/2000/svg">
<path d="M1708 15.8624C1708 9.49911 1704 3.72289 1697.78 2.3955C1680.64 -1.26074 1660.67 -0.503252 1643.18 3.12157C1616.58 8.68863 1593.27 19.6239 1568.26 27.9083C1515.95 45.2059 1454.93 50.7067 1397.52 43.2177C1346.51 36.524 1298.09 20.0216 1246.08 19.6239C1147.85 18.7624 1066.03 85.8985 955.503 83.7115C908.491 82.7836 886.585 74.3668 852.176 68.3358C791.76 57.6656 724.643 64.5581 671.929 86.9589C658.326 92.7911 645.622 99.4848 630.718 103.528C602.611 111.282 567.502 111.149 542.095 100.148C462.874 65.9499 442.469 43.1514 342.943 68.5346C313.835 76.0236 280.827 68.866 254.62 57.533C228.513 46.1338 205.207 31.2883 175.799 24.1969C146.592 17.1055 113.083 18.5635 85.5757 28.1734C63.2699 35.9275 45.1651 48.5197 21.559 54.3518C-18.6515 64.2267 -63.1632 52.8938 -103.174 42.6875C-138.183 33.6786 -164.777 26.6018 -188.294 23.53C-196.803 22.4184 -204 29.2723 -204 37.8542V775C-204 783.284 -197.284 790 -189 790H1693C1701.28 790 1708 783.284 1708 775V15.8624Z" fill="#5817BE"/>
</svg>
