<svg width="56" height="63" viewBox="0 0 56 63" fill="none" xmlns="http://www.w3.org/2000/svg">
<g clip-path="url(#clip0)">
<path d="M41.8222 37.9684L40.6035 40.0909L53.4802 47.484L54.6988 45.3615L41.8222 37.9684Z" fill="#373744"/>
<path d="M13.588 37.9077L0.612366 45.3576L1.831 47.4801L14.8067 40.0302L13.588 37.9077Z" fill="#373744"/>
<path d="M27.6573 63L0 47.1235V15.8765L27.6573 0L55.3147 15.8765V47.1235L27.6573 63ZM2.44755 45.704L27.6573 60.1772L52.8671 45.704V17.296L27.6573 2.82284L2.44755 17.296V45.704Z" fill="#373744"/>
<path d="M28.8815 1.90094H26.434V16.4231H28.8815V1.90094Z" fill="#373744"/>
<path d="M27.6586 47.8334C18.6598 47.8334 11.3416 40.5152 11.3416 31.5164C11.3416 22.5176 18.6598 15.1994 27.6586 15.1994C36.6574 15.1994 43.9756 22.5176 43.9756 31.5164C43.9756 40.5152 36.6574 47.8334 27.6586 47.8334ZM27.6586 17.647C20.0141 17.647 13.7891 23.8719 13.7891 31.5164C13.7891 39.1609 20.0141 45.3859 27.6586 45.3859C35.3031 45.3859 41.5281 39.1609 41.5281 31.5164C41.5281 23.8719 35.3031 17.647 27.6586 17.647Z" fill="#F8A1A0"/>
<path d="M27.6588 33.1725L0.613312 17.6469L1.83709 15.5257L27.6588 30.3497L53.4804 15.5257L54.6961 17.6469L27.6588 33.1725Z" fill="#373744"/>
<path d="M28.8815 31.6306H26.434V61.5886H28.8815V31.6306Z" fill="#373744"/>
</g>
<defs>
<clipPath id="clip0">
<rect width="55.3147" height="63" fill="white"/>
</clipPath>
</defs>
</svg>
