<svg width="13" height="12" viewBox="0 0 13 12" fill="none" xmlns="http://www.w3.org/2000/svg">
<path d="M6.58742 2.87915C4.90551 2.87915 3.51192 4.25818 3.51192 5.97592C3.51192 7.69367 4.88148 9.0727 6.58742 9.0727C8.29337 9.0727 9.66293 7.66947 9.66293 5.97592C9.66293 4.28238 8.26934 2.87915 6.58742 2.87915ZM6.58742 7.95979C5.50619 7.95979 4.61718 7.06463 4.61718 5.97592C4.61718 4.88721 5.50619 3.99205 6.58742 3.99205C7.66866 3.99205 8.55767 4.88721 8.55767 5.97592C8.55767 7.06463 7.66866 7.95979 6.58742 7.95979Z" fill="white"/>
<path d="M9.78304 3.50796C10.1679 3.50796 10.4798 3.19384 10.4798 2.80635C10.4798 2.41886 10.1679 2.10474 9.78304 2.10474C9.39821 2.10474 9.08624 2.41886 9.08624 2.80635C9.08624 3.19384 9.39821 3.50796 9.78304 3.50796Z" fill="white"/>
<path d="M11.5854 0.991935C10.9607 0.33871 10.0717 0 9.06252 0H4.11288C2.02249 0 0.628906 1.40323 0.628906 3.50806V8.46774C0.628906 9.50806 0.96529 10.4032 1.63806 11.0565C2.2868 11.6855 3.15178 12 4.1369 12H9.03849C10.0717 12 10.9367 11.6613 11.5614 11.0565C12.2101 10.4274 12.5465 9.53226 12.5465 8.49194V3.50806C12.5465 2.49194 12.2101 1.62097 11.5854 0.991935ZM11.4893 8.49194C11.4893 9.24194 11.225 9.84677 10.7925 10.2581C10.36 10.6694 9.75931 10.8871 9.03849 10.8871H4.1369C3.41608 10.8871 2.8154 10.6694 2.38291 10.2581C1.95041 9.82258 1.73417 9.21774 1.73417 8.46774V3.50806C1.73417 2.78226 1.95041 2.17742 2.38291 1.74194C2.79137 1.33065 3.41608 1.1129 4.1369 1.1129H9.08654C9.80737 1.1129 10.4081 1.33065 10.8405 1.76613C11.249 2.20161 11.4893 2.80645 11.4893 3.50806V8.49194Z" fill="white"/>
</svg>
