<svg width="13" height="12" viewBox="0 0 13 12" fill="none" xmlns="http://www.w3.org/2000/svg">
<path d="M12.9047 7.12429V11.6201H10.2983V7.4254C10.2983 6.37165 9.92132 5.6525 8.97788 5.6525C8.25769 5.6525 7.82911 6.13715 7.64056 6.60597C7.5718 6.77357 7.5541 7.00685 7.5541 7.24146V11.6201H4.94682C4.94682 11.6201 4.98193 4.51563 4.94682 3.77955H7.55385V4.89092C7.54856 4.89923 7.54169 4.9082 7.53671 4.91625H7.55385V4.89092C7.90021 4.35744 8.51879 3.59535 9.90336 3.59535C11.6188 3.59533 12.9047 4.71597 12.9047 7.12429ZM2.21949 0C1.32755 0 0.744141 0.585047 0.744141 1.3544C0.744141 2.10699 1.31067 2.7098 2.18489 2.7098H2.2023C3.11153 2.7098 3.67698 2.10711 3.67698 1.3544C3.65985 0.585047 3.11153 0 2.21949 0ZM0.89899 11.6201H3.50528V3.77955H0.89899V11.6201Z" fill="white"/>
</svg>
