<svg width="71" height="32" viewBox="0 0 71 32" fill="none" xmlns="http://www.w3.org/2000/svg">
<path d="M5.42704 11.1765H5.47189C6.50347 9.39165 8.29754 8.62671 10.4056 8.62671H11.4371V13.5563C10.6747 13.1739 9.95704 13.0889 9.14972 13.0889C6.14466 13.0889 5.38219 14.9587 5.38219 17.466V23.2881H0V8.7967H5.42704V11.1765Z" fill="#373744"/>
<path d="M19.6899 8.79688H14.2628V23.2882H19.6899V8.79688Z" fill="#373744"/>
<path d="M29.1985 10.4542H29.2434C30.2301 9.00929 32.069 8.32935 33.8631 8.32935C38.4379 8.32935 41.5775 11.9416 41.5775 16.1062C41.5775 20.2709 38.4379 23.7981 33.9079 23.7981C32.1587 23.7981 30.3198 23.2032 29.1537 21.9283V29.8752L23.7715 32V8.79681H29.1985V10.4542ZM29.0191 16.0637C29.0191 17.8911 30.3198 19.2935 32.5175 19.2935C34.7153 19.2935 36.016 17.8911 36.016 16.0637C36.016 14.2789 34.7153 12.7915 32.5175 12.7915C30.275 12.7915 29.0191 14.2789 29.0191 16.0637Z" fill="#373744"/>
<path d="M49.8751 8.79688H44.4481V23.2882H49.8751V8.79688Z" fill="#373744"/>
<path d="M70.9998 16.0637C70.9998 20.9934 66.6941 23.7556 61.8053 23.7556C56.9165 23.7556 52.6107 20.9934 52.6107 16.0637C52.6107 11.1341 56.9165 8.32935 61.8053 8.32935C66.7389 8.32935 70.9998 11.1341 70.9998 16.0637ZM58.3517 16.0637C58.3517 17.8911 59.6524 19.2935 61.8501 19.2935C64.0479 19.2935 65.3485 17.8911 65.3485 16.0637C65.3485 14.2789 64.0479 12.7915 61.8501 12.7915C59.6076 12.7915 58.3517 14.2789 58.3517 16.0637Z" fill="#373744"/>
<path d="M19.6901 4.80212L14.3976 6.79947V2.03984L19.6901 0V4.80212Z" fill="#373744"/>
<path d="M49.8305 4.80212L44.538 6.79947V2.03984L49.8305 0V4.80212Z" fill="#373744"/>
</svg>
