<svg width="67" height="32" viewBox="0 0 67 32" fill="none" xmlns="http://www.w3.org/2000/svg">
<path d="M5.12129 11.1766H5.16361C6.13708 9.39177 7.83007 8.62683 9.81933 8.62683H10.7928V13.5564C10.0733 13.174 9.39608 13.089 8.63424 13.089C5.79848 13.089 5.07896 14.9588 5.07896 17.4661V23.2882H0V8.79682H5.12129V11.1766Z" fill="white"/>
<path d="M18.5805 8.79688H13.4593V23.2882H18.5805V8.79688Z" fill="white"/>
<path d="M27.5534 10.4542H27.5957C28.5269 9.00929 30.2622 8.32935 31.9552 8.32935C36.2723 8.32935 39.235 11.9416 39.235 16.1062C39.235 20.2709 36.2723 23.7981 31.9975 23.7981C30.3468 23.7981 28.6115 23.2032 27.5111 21.9283V29.8752L22.4321 32V8.79681H27.5534V10.4542ZM27.3841 16.0637C27.3841 17.8911 28.6115 19.2935 30.6854 19.2935C32.7593 19.2935 33.9867 17.8911 33.9867 16.0637C33.9867 14.2789 32.7593 12.7915 30.6854 12.7915C28.5692 12.7915 27.3841 14.2789 27.3841 16.0637Z" fill="white"/>
<path d="M47.0651 8.79688H41.9438V23.2882H47.0651V8.79688Z" fill="white"/>
<path d="M67 16.0637C67 20.9934 62.9368 23.7556 58.3234 23.7556C53.7101 23.7556 49.6469 20.9934 49.6469 16.0637C49.6469 11.1341 53.7101 8.32935 58.3234 8.32935C62.9792 8.32935 67 11.1341 67 16.0637ZM55.0644 16.0637C55.0644 17.8911 56.2919 19.2935 58.3658 19.2935C60.4397 19.2935 61.6671 17.8911 61.6671 16.0637C61.6671 14.2789 60.4397 12.7915 58.3658 12.7915C56.2495 12.7915 55.0644 14.2789 55.0644 16.0637Z" fill="white"/>
<path d="M18.5805 4.80212L13.5862 6.79947V2.03984L18.5805 0V4.80212Z" fill="white"/>
<path d="M47.0228 4.80212L42.0284 6.79947V2.03984L47.0228 0V4.80212Z" fill="white"/>
</svg>
