<svg width="52" height="61" viewBox="0 0 52 61" fill="none" xmlns="http://www.w3.org/2000/svg">
<path d="M25.865 60.1979C25.61 60.1979 25.355 60.1739 25.1121 60.1259C24.9299 60.0899 24.7599 60.042 24.5899 59.982C18.7002 57.9554 13.8305 55.1134 10.1145 51.5279C6.85999 48.3981 4.38266 44.5848 2.74325 40.1959C-0.244121 32.1735 -0.0741077 23.2757 0.0594739 16.1287V16.0208C0.0837615 15.4212 0.108049 14.7976 0.120193 14.1021C0.168768 11.0323 2.63396 8.49006 5.75491 8.32218C13.0533 7.91446 18.7123 5.56411 23.5456 0.911362L23.582 0.875387C24.2013 0.311782 25.0149 0 25.865 0C26.7151 0 27.5287 0.311782 28.1602 0.887379L28.1966 0.923354C33.0298 5.5761 38.6767 7.92645 45.9873 8.33417C49.0961 8.50205 51.5734 11.0443 51.622 14.1141C51.6341 14.8216 51.6463 15.4572 51.6827 16.0448V16.0807C51.8163 23.2397 51.9863 32.1495 48.9868 40.1959C47.3474 44.5848 44.87 48.3981 41.6155 51.5279C37.9117 55.1014 33.042 57.9434 27.1523 59.982C26.9822 60.042 26.8122 60.0899 26.6301 60.1259C26.3751 60.1739 26.12 60.1979 25.865 60.1979ZM25.865 2.41031C25.6464 2.41031 25.4278 2.49425 25.2457 2.63815L25.2335 2.65015L25.2214 2.66214C22.5862 5.20436 19.7445 7.07505 16.5507 8.41811C13.3448 9.76117 9.85951 10.5166 5.88849 10.7325C4.04263 10.8284 2.58538 12.3274 2.54895 14.1501C2.53681 14.8576 2.52466 15.5051 2.48823 16.1287V16.1767C2.34251 23.4916 2.18464 31.7658 5.02628 39.3684C8.29296 48.1223 14.9478 54.1181 25.3914 57.7156C25.4521 57.7396 25.525 57.7516 25.5857 57.7636C25.6829 57.7876 25.78 57.7875 25.865 57.7875C25.9622 57.7875 26.0472 57.7756 26.1443 57.7636C26.205 57.7516 26.2779 57.7396 26.3386 57.7156C36.7701 54.1181 43.4249 48.1103 46.6916 39.3684C49.5454 31.7418 49.3754 23.4556 49.2418 16.1407V16.1287C49.2175 15.5171 49.1932 14.8696 49.1811 14.1501C49.1568 12.3274 47.6874 10.8284 45.8537 10.7325C41.8827 10.5166 38.3974 9.76117 35.1914 8.41811C31.9976 7.08704 29.1681 5.20436 26.5208 2.66214L26.5086 2.65015L26.4965 2.63815C26.3143 2.48226 26.0836 2.41031 25.865 2.41031Z" fill="#373744"/>
<path d="M25.8631 44.8006C17.6539 44.8006 10.9748 38.2052 10.9748 30.0989C10.9748 21.9925 17.6539 15.3972 25.8631 15.3972C34.0723 15.3972 40.7514 21.9925 40.7514 30.0989C40.7514 38.2052 34.0723 44.8006 25.8631 44.8006ZM25.8631 17.8075C19.0018 17.8075 13.4035 23.3236 13.4035 30.1109C13.4035 36.8981 18.9897 42.4142 25.8631 42.4142C32.7243 42.4142 38.3226 36.8981 38.3226 30.1109C38.3226 23.3236 32.7243 17.8075 25.8631 17.8075Z" fill="#01EABB"/>
<path d="M23.1192 36.2026C22.7913 36.2026 22.4877 36.0827 22.257 35.8548L19.0146 32.6531C18.541 32.1854 18.541 31.4179 19.0146 30.9502C19.2453 30.7224 19.5489 30.6025 19.8768 30.6025C20.2047 30.6025 20.5082 30.7224 20.739 30.9502L23.1192 33.3006L30.7455 25.7699C30.9762 25.542 31.2798 25.4221 31.6077 25.4221C31.9356 25.4221 32.2391 25.542 32.4699 25.7699C32.9435 26.2375 32.9435 27.005 32.4699 27.4727L23.9814 35.8548C23.7506 36.0827 23.447 36.2026 23.1192 36.2026Z" fill="#373744"/>
</svg>
