<svg width="16" height="12" viewBox="0 0 16 12" fill="none" xmlns="http://www.w3.org/2000/svg">
<path d="M13.815 2.99192C13.8242 3.1212 13.8242 3.2551 13.8242 3.38438C13.8242 7.38746 10.799 12 5.27105 12C3.56591 12 1.98454 11.5013 0.655273 10.6426C0.898209 10.6703 1.13198 10.6795 1.3795 10.6795C2.78669 10.6795 4.07929 10.1993 5.11062 9.38669C3.79051 9.35898 2.68126 8.48634 2.30082 7.28588C2.76377 7.35514 3.18088 7.35514 3.65759 7.23047C2.28248 6.94883 1.25115 5.7299 1.25115 4.25702V4.22008C1.64993 4.44633 2.11747 4.58484 2.60792 4.60331C1.77041 4.04216 1.26784 3.09555 1.26949 2.08234C1.26949 1.51905 1.41617 1.00192 1.67744 0.554059C3.15797 2.39169 5.38105 3.59215 7.87458 3.72143C7.4483 1.6668 8.97466 0 10.8081 0C11.6745 0 12.4537 0.364756 13.0037 0.955752C13.6821 0.826472 14.333 0.572528 14.9105 0.226241C14.6859 0.928049 14.2138 1.51905 13.5904 1.89304C14.1955 1.8284 14.7822 1.65756 15.3231 1.42209C14.9151 2.02693 14.4017 2.56252 13.815 2.99192Z" fill="white"/>
</svg>
