<svg width="360" height="1278" viewBox="0 0 360 1278" fill="none" xmlns="http://www.w3.org/2000/svg">
<path d="M1141.44 830.258C1131.73 808.24 1113.45 534.845 1089.44 533.615C1065.43 532.452 1041.76 538.88 1017.82 541.546C967.807 547.085 915.951 535.666 872.988 509.477C834.815 486.228 803.072 451.629 761.273 435.697C682.326 405.473 586.071 462.98 497.752 427.423C460.194 412.311 446.239 395.558 421.132 377.985C377.075 347.01 319.814 335.522 267.138 347.078C253.592 350.087 240.252 354.463 226.433 355.078C200.231 356.173 171.977 345.574 156.311 324.582C107.671 259.349 101.377 225.501 9.56891 226.801C-17.3167 227.279 -40.7818 208.749 -56.8585 187.141C-72.8667 165.465 -84.9755 140.507 -105.567 123.07C-125.954 105.771 -153.729 97.5653 -180.273 101.053C-201.754 103.856 -222.072 113.839 -243.758 113.908C-280.7 114.045 -311.622 86.9667 -339.329 62.6239C-395.631 13.3915 -419.781 -10.4726 -477.93 4.36553C-481.624 5.32283 -485.25 6.41688 -488.876 7.37418L-580 35.8196L-415.533 853.233C-405.408 850.908 -393.436 849.609 -384.064 853.165C-364.02 860.755 -338.229 887.012 -306.965 883.798C-168.158 869.576 -208.589 959.699 -119.996 981.99C-87.3641 990.264 -51.0377 985.204 -21.3472 1000.79C13.4742 1019.05 31.9452 1062.88 69.6399 1074.03C113.492 1086.95 155.496 1048.86 200.921 1042.16C222.334 1039.02 244.294 1043.05 264.886 1049.75C309.285 1064.25 348.827 1090.3 389.873 1112.52C463.073 1152.12 528.748 1155.74 528.748 1155.74C584.161 1161.28 642.174 1137.62 696.151 1155.74C740.071 1170.51 777.355 1199.78 816.487 1224.66C855.618 1249.49 900.222 1270.82 946.4 1266.38C975.953 1263.5 1003.66 1250.24 1032.94 1244.77C1079.32 1236.15 1129.13 1248.6 1166 1278L1141.44 830.258Z" fill="url(#paint0_linear)"/>
<defs>
<linearGradient id="paint0_linear" x1="19.4068" y1="158.779" x2="789.966" y2="1079.86" gradientUnits="userSpaceOnUse">
<stop stop-color="#6D07E6"/>
<stop offset="1" stop-color="#3A2A88"/>
</linearGradient>
</defs>
</svg>
