<svg width="17" height="11" viewBox="0 0 17 11" fill="none" xmlns="http://www.w3.org/2000/svg">
<path d="M15.6361 1.03038C15.2142 0.279953 14.7564 0.14192 13.8242 0.0894293C12.8929 0.0262456 10.5512 0 8.52255 0C6.48997 0 4.14731 0.0262456 3.21706 0.0884573C2.2868 0.141921 1.82799 0.278981 1.40222 1.03038C0.967714 1.77984 0.744141 3.07073 0.744141 5.3434C0.744141 5.34535 0.744141 5.34632 0.744141 5.34632C0.744141 5.34826 0.744141 5.34923 0.744141 5.34923V5.35118C0.744141 7.61413 0.967714 8.91474 1.40222 9.65642C1.82799 10.4069 2.28582 10.5429 3.21608 10.6061C4.14731 10.6606 6.48997 10.6926 8.52255 10.6926C10.5512 10.6926 12.8929 10.6606 13.8251 10.6071C14.7573 10.5439 15.2152 10.4078 15.637 9.65739C16.0754 8.91571 16.2971 7.6151 16.2971 5.35215C16.2971 5.35215 16.2971 5.34923 16.2971 5.34729C16.2971 5.34729 16.2971 5.34535 16.2971 5.34437C16.2971 3.07073 16.0754 1.77984 15.6361 1.03038ZM6.57649 8.26249V2.43014L11.4368 5.34632L6.57649 8.26249Z" fill="white"/>
</svg>
